<svg id="Layer_1" data-name="Layer 1" xmlns="http://www.w3.org/2000/svg" viewBox="0 0 1292.55 407.23"><defs><style>.cls-1{fill:#99e07b;}.cls-2{fill:#6bb962;}.cls-3{fill:#307470;}</style></defs><title>logo2</title><path class="cls-1" d="M187.79,5.83c.43-.24.84-.66,1.28-.68,10.78-.61,21.55-1.79,32.35-1,25.1,1.72,49.43,6.75,72.58,17.11A251.44,251.44,0,0,1,318.64,34.1c2.13,1.26,2.46,2.75,2.45,4.87q0,31.5-.06,63c0,.85.67,2.15-.61,2.51-.82.24-1.35-.8-1.93-1.36a160.23,160.23,0,0,0-40.56-28.48c-13.76-6.83-28.35-10.88-43.42-13.54a136.78,136.78,0,0,0-39.07-.78,149.9,149.9,0,0,0-75.22,30c-3.41,2.59-6,6.18-10.11,7.88-1.27-1.26-.42-2.44.15-3.62A208.18,208.18,0,0,1,139.06,51c14.2-16.8,29.88-32.12,48.43-44.23A.81.81,0,0,0,187.79,5.83Z" transform="translate(-8 -3.89)"/><path class="cls-1" d="M334.93,208V52c0-1.86-1-4.54.74-5.38,1.44-.7,2.91,1.72,4.37,2.79,2.82,2.07,5.27,4.57,7.95,6.79a7.71,7.71,0,0,1,3.09,6.8c-.14,26.16-.09,52.32-.06,78.48,0,1.63-.62,4.39.32,4.65,1.74.47,2.16-2.09,3.05-3.35,6.33-9,14.51-15.8,23.54-21.91,11.71-7.92,24.86-11.63,38.52-13.59,6.2-.9,12.65-.4,19-.11,4.44.2,5.16,1.24,4.56,5.57-2.4,17.48-9,33.07-20.57,46.59A88.8,88.8,0,0,1,382.2,185a75,75,0,0,1-24.66,5.11c-7.71.15-6.47-.8-6.48,6.84q-.06,77.47.06,155c0,3.77-.59,6.55-3.93,8.84-3.54,2.43-6.59,5.57-9.86,8.4-1.61,1.39-2.32.82-2.35-1.12v-4Z" transform="translate(-8 -3.89)"/><path class="cls-2" d="M60.77,207c.23,9.13.53,18.22,2,27.29A150,150,0,0,0,116.31,327a32.39,32.39,0,0,1,2.76,2.86c7.09,9.81,13.71,19.94,21.32,29.4,14.68,18.26,32.28,33.25,51.25,46.78,1.38,1,3.48,1.51,3.31,3.88-8.4.31-16.49-1.7-24.6-3.37A202.76,202.76,0,0,1,33.93,306.66c-1.6-2.89-3.15-5.81-4.72-8.72,0-11.61,3-22.72,6-33.78a222.93,222.93,0,0,1,22-53.4C58.05,209.24,58.47,207.21,60.77,207Z" transform="translate(-8 -3.89)"/><path class="cls-1" d="M195,409.92c-8.52-6.4-17.44-12.34-25.42-19.35-7-6.17-14.28-12.15-20.34-19.52-5.53-6.73-11.59-13.06-16.73-20.13-4.16-5.72-8.17-11.55-12.14-17.39-.7-1-1.56-2.2-1.25-3.67,3.71,1.55,6.63,4.3,9.92,6.47a148.19,148.19,0,0,0,59.32,22.81A148.58,148.58,0,0,0,287.52,341a144,144,0,0,0,30.72-23.58c.67-.69,1.29-2,2.28-1.67s.52,1.7.52,2.59q0,29,.07,58a4.89,4.89,0,0,1-2.55,4.82,204.82,204.82,0,0,1-64.82,25.71A195.84,195.84,0,0,1,206.3,411C202.48,410.9,198.66,411.06,195,409.92Z" transform="translate(-8 -3.89)"/><path class="cls-2" d="M187.79,5.83c.39.45,2.22,0,1.28,1a49.44,49.44,0,0,1-6.7,5,179.9,179.9,0,0,0-21.71,17.93c-10.38,10-20.35,20.43-28.81,32.1-6.66,9.18-13.46,18.37-18.13,28.83-1.12,2.52-3.42,4.47-3.61,7.43-5.23,6.21-11.06,11.85-16.17,18.18A144.32,144.32,0,0,0,64.87,176a5,5,0,0,1-.72,1.24c-2-1-2.46-3.06-3.31-4.84a246.51,246.51,0,0,1-20.75-65.53c-.45-2.62-.93-5.26-.14-7.92,3.31-7.12,8.19-13.19,13-19.24A206.2,206.2,0,0,1,98.48,38.19a196.68,196.68,0,0,1,32.35-17.54A201.5,201.5,0,0,1,173,7.61C177.85,6.67,182.85,6.4,187.79,5.83Z" transform="translate(-8 -3.89)"/><path class="cls-1" d="M306.1,187.89a142.28,142.28,0,0,1,13.19,42.36c.53,3.42.18,7,1.45,10.3.58,1.53-.23,2.29-1.87,2.76a51.7,51.7,0,0,1-11.28,1.49c-19.53,1.16-38.67-1.07-57.17-7.8a144.58,144.58,0,0,1-46.79-27.59c-24.22-21.34-39.31-48-46.32-79.23-1.4-6.21-2.7-12.64-2.28-19.17,4.73.56,5.41,5.11,7.85,7.94,15.14,26.2,36.72,45.3,64.29,57.48,23.09,10.21,47.27,14.32,72.5,11.39C301.79,187.58,304,187.17,306.1,187.89Z" transform="translate(-8 -3.89)"/><path class="cls-3" d="M40,98.91c2,2.89,1.3,6.41,1.82,9.56C45.28,129.26,52,149,60.3,168.26c1.28,3,2.77,5.88,3.9,8.94-.53,6.05-1.94,12-2.6,18-.44,3.94-.15,7.9-.78,11.81a232.54,232.54,0,0,0-20.88,46.21,224.31,224.31,0,0,0-9,38.19c-.31,2.13-.19,4.58-1.63,6.51a197.61,197.61,0,0,1-20-67.19,205,205,0,0,1,1.5-56.95A202.43,202.43,0,0,1,38.3,100.64C38.72,100,39,99.11,40,98.91Z" transform="translate(-8 -3.89)"/><path class="cls-3" d="M161.92,119.16c-2.52-2.52-3.8-6.11-6.89-8.15-.86-1.53-.48-2.56,1.29-2.84a69.65,69.65,0,0,1,8.38-1.11c6.65-.2,13.3-.24,20-.16,16.75.18,32.61,4.38,48,10.77,20.88,8.69,38.45,21.91,53.33,38.82a14,14,0,0,1,3.15,4.44c-1.4,1.77-3.51,1.76-5.44,2a142.77,142.77,0,0,1-43.67-1.1,147.23,147.23,0,0,1-69-32.75C167.51,126.17,164.78,122.61,161.92,119.16Z" transform="translate(-8 -3.89)"/><path class="cls-2" d="M161.92,119.16c2.18.7,3.3,2.66,4.83,4.12A137.91,137.91,0,0,0,213.52,153a142.61,142.61,0,0,0,33.56,8.6c10,1.2,19.87,1.81,29.9.6,4-.48,8.1-.68,12.13-1.26a97,97,0,0,1,17,27c-5.68,1.88-11.63,1.79-17.47,2a139,139,0,0,1-54.88-9.22A140.92,140.92,0,0,1,178.55,143a158.3,158.3,0,0,1-15.38-20.6A17,17,0,0,1,161.92,119.16Z" transform="translate(-8 -3.89)"/><path class="cls-1" d="M475,349.58,467.08,345a31.23,31.23,0,0,1-12.22-13.08,42.51,42.51,0,0,1-4.34-19.62V284.8a42.45,42.45,0,0,1,4.34-19.62,31.51,31.51,0,0,1,12.22-13.12,35.29,35.29,0,0,1,18.28-4.65,34.32,34.32,0,0,1,15.83,3.69,33.26,33.26,0,0,1,12.08,10.43,39.08,39.08,0,0,1,6.58,15.63H505.46a22.39,22.39,0,0,0-4.37-8.37,21.4,21.4,0,0,0-7.2-5.68,20.15,20.15,0,0,0-19.27,1,19.6,19.6,0,0,0-7.16,8.3,28.53,28.53,0,0,0-2.55,12.43v27.47a28.57,28.57,0,0,0,2.55,12.39,19.31,19.31,0,0,0,7.16,8.3,19.6,19.6,0,0,0,10.74,2.92,20.5,20.5,0,0,0,8.57-1.86,20.06,20.06,0,0,0,7.16-5.5,21.91,21.91,0,0,0,4.37-8.68h14.39a38.9,38.9,0,0,1-6.61,15.63,33.62,33.62,0,0,1-12.12,10.43,34.15,34.15,0,0,1-15.76,3.68Z" transform="translate(-8 -3.89)"/><path class="cls-1" d="M549.94,345.93a24,24,0,0,1-10.09-10.63q-3.48-7-3.48-16.84V306.83a36.69,36.69,0,0,1,3.48-16.63,24,24,0,0,1,10.09-10.53,36.73,36.73,0,0,1,31.8,0,24,24,0,0,1,10.09,10.53,36.69,36.69,0,0,1,3.48,16.63v11.84q0,9.78-3.48,16.7a24.13,24.13,0,0,1-10.09,10.56,36.46,36.46,0,0,1-31.8,0Zm27.29-14.32q4-4.61,4-12.94V306.83q0-8.32-4-12.88t-11.39-4.54q-7.37,0-11.4,4.54t-4,12.88v11.84q0,8.32,4,12.94t11.4,4.62Q573.2,336.23,577.23,331.61Z" transform="translate(-8 -3.89)"/><path class="cls-1" d="M615.27,277.09h14.05v71.46H615.27Zm43.38,28.16q0-7.58-3.93-11.71c-2.61-2.75-6.29-4.13-11-4.13s-8.14,1.22-10.64,3.65-3.75,5.85-3.75,10.26l-1.45-13.77a25.48,25.48,0,0,1,8.64-10,21,21,0,0,1,11.81-3.52q11.64,0,18,7.61t6.37,21.52v43.37h-14Z" transform="translate(-8 -3.89)"/><path class="cls-1" d="M713,349.58l-5.55-1.24a43.12,43.12,0,0,1-10.36-3.71,41,41,0,0,1-8.88-6.2l8.33-10.26a47.08,47.08,0,0,0,11.5,6.61A31.18,31.18,0,0,0,719.3,337q8.33,0,12.5-2.58a8.52,8.52,0,0,0,4.16-7.74,6.06,6.06,0,0,0-2.27-5.17,12.89,12.89,0,0,0-5.65-2.3q-3.36-.58-9.5-1.07l-1.17,0c-.41,0-.8-.06-1.17-.11a5.07,5.07,0,0,1-.55,0,5.09,5.09,0,0,0-.55,0,54.84,54.84,0,0,1-11.77-2,15.93,15.93,0,0,1-8-5.54q-3.21-4.06-3.2-11.63t3.09-12.6a18.83,18.83,0,0,1,9.23-7.54q6.12-2.52,15.35-2.52a53,53,0,0,1,10.64,1A47,47,0,0,1,749,285.28l-8.46,10.26a47.19,47.19,0,0,0-10.57-5.17,32.44,32.44,0,0,0-10.16-1.72q-7.15,0-10.74,2.45a8.3,8.3,0,0,0-3.58,7.33,5,5,0,0,0,2,4.34,12,12,0,0,0,5.13,1.92c2.07.33,5,.6,8.82.83a4.76,4.76,0,0,0,.86.07,6.19,6.19,0,0,1,.93.07h.41a1.18,1.18,0,0,1,.41.07,60.89,60.89,0,0,1,12.77,2,17.27,17.27,0,0,1,8.85,6q3.58,4.49,3.58,13,0,7.71-3.3,12.77A20,20,0,0,1,736,347q-6.64,2.54-16.7,2.54Z" transform="translate(-8 -3.89)"/><path class="cls-1" d="M781.19,320.53q0,7.5,3.83,11.6t10.77,4.1q6.88,0,10.67-3.65t3.79-10.4l1,14.94a20.48,20.48,0,0,1-7.16,8.88,20.23,20.23,0,0,1-12.18,3.58q-11.85,0-18.28-7.6t-6.44-21.45V277.09h14Zm29.06-43.44h14v71.46h-14Z" transform="translate(-8 -3.89)"/><path class="cls-1" d="M859.61,330.1a6.28,6.28,0,0,0,1.14,4,3.87,3.87,0,0,0,3.2,1.41h6.61v13.35H862.3q-8,0-12.36-4.95t-4.37-14V248.45h14Z" transform="translate(-8 -3.89)"/><path class="cls-1" d="M880.89,277.09h32.22v12.67H880.89Zm11.39,67q-4-4.78-4-14.15V256.3h14v73.8a6.74,6.74,0,0,0,1,4,3.52,3.52,0,0,0,3,1.41h6.75v13.35H905Q896.31,348.89,892.28,344.11Z" transform="translate(-8 -3.89)"/><path class="cls-1" d="M932.38,248.45h14v14h-14Zm0,28.64h14v71.46h-14Z" transform="translate(-8 -3.89)"/><path class="cls-1" d="M967.77,277.09h14.05v71.46H967.77Zm43.38,28.16q0-7.58-3.93-11.71c-2.61-2.75-6.29-4.13-11-4.13s-8.14,1.22-10.64,3.65-3.75,5.85-3.75,10.26l-1.45-13.77a25.48,25.48,0,0,1,8.64-10,21,21,0,0,1,11.81-3.52q11.64,0,18,7.61t6.37,21.52v43.37h-14Z" transform="translate(-8 -3.89)"/><path class="cls-1" d="M1055.79,346.38a21.49,21.49,0,0,1-8.43-9.95,38.6,38.6,0,0,1-2.89-15.69V305a39.73,39.73,0,0,1,2.82-15.77,21.37,21.37,0,0,1,8.23-9.94,23.76,23.76,0,0,1,13-3.41,21.42,21.42,0,0,1,11.6,3.3,24.41,24.41,0,0,1,8.5,9.3L1087.15,303a17,17,0,0,0-1.65-7.78,11.31,11.31,0,0,0-4.78-4.92,15.93,15.93,0,0,0-7.61-1.69q-7,0-10.78,4.34t-3.82,12.19v15.56q0,7.77,3.82,12t10.78,4.23a15.37,15.37,0,0,0,7.61-1.75,11.64,11.64,0,0,0,4.78-5.06,17.57,17.57,0,0,0,1.65-7.92l1,15.08a20.33,20.33,0,0,1-7,8.88,19.57,19.57,0,0,1-12,3.58A25.12,25.12,0,0,1,1055.79,346.38Zm6.65,31.22-6.37-3a23.2,23.2,0,0,1-9.88-8.43l9.5-8.61a19.65,19.65,0,0,0,6.58,5.85,16.58,16.58,0,0,0,8,2.07q8.06,0,12.46-4.44t4.4-12.57V277.09h14v69.33a36.43,36.43,0,0,1-3.62,16.86,24.46,24.46,0,0,1-10.5,10.68q-6.87,3.65-16.59,3.64Z" transform="translate(-8 -3.89)"/><path class="cls-3" d="M473.92,203.73A40,40,0,0,1,458,187.39q-5.65-10.56-5.65-24.47v-35.8q0-13.91,5.65-24.47a40,40,0,0,1,15.91-16.34,51.58,51.58,0,0,1,47.45,0,40,40,0,0,1,15.91,16.34q5.64,10.56,5.65,24.47v35.8q0,13.92-5.65,24.47a40,40,0,0,1-15.91,16.34,51.58,51.58,0,0,1-47.45,0Zm36.28-17.95a21.07,21.07,0,0,0,8.39-8.91,28.9,28.9,0,0,0,2.95-13.34v-37a28.9,28.9,0,0,0-2.95-13.34,21.07,21.07,0,0,0-8.39-8.91,26.77,26.77,0,0,0-25.12,0,21,21,0,0,0-8.38,8.91,28.9,28.9,0,0,0-3,13.34v37a28.9,28.9,0,0,0,3,13.34,21,21,0,0,0,8.38,8.91,26.77,26.77,0,0,0,25.12,0Z" transform="translate(-8 -3.89)"/><path class="cls-3" d="M571.52,202.6q-7.74-6.91-7.74-21,0-13.38,7.83-20.08t23.46-6.69h24.17L620.45,171H595.16q-6.17,0-9.26,2.6t-3.08,8q0,5.65,4,8.39t12.08,2.74q9.9,0,14.73-2.18c3.22-1.44,4.82-3.7,4.82-6.78l1.83,12.87a15.19,15.19,0,0,1-5.17,7.12,25.25,25.25,0,0,1-8.91,4.31,43.11,43.11,0,0,1-11.39,1.43Q579.26,209.51,571.52,202.6ZM618.45,151q0-7.56-4.47-11.74t-12.65-4.17a32.72,32.72,0,0,0-10.25,1.65,31.47,31.47,0,0,0-9,4.61l-13.82-11.65a35.09,35.09,0,0,1,13.9-9.6,51.16,51.16,0,0,1,19.12-3.43q11.47,0,19.65,4a28.11,28.11,0,0,1,12.47,11.47q4.3,7.53,4.3,18.13v58H618.45Z" transform="translate(-8 -3.89)"/><path class="cls-3" d="M662.87,81.83h20.77V208.21H662.87Zm9.38,93L716.49,118h23L673.3,198.47Zm21.12-16L708.93,147l35,61.19H720.58Z" transform="translate(-8 -3.89)"/><path class="cls-3" d="M779.63,158.06q-5.43,5.38-5.43,15.21,0,8.43,5.83,13.08T796.54,191A27.54,27.54,0,0,0,814,185.3q7.31-5.69,11.08-16.42t3.78-25.6h19.91q0,20.78-6.57,35.64t-19.16,22.72q-12.6,7.88-30.42,7.87-12.09,0-20.64-4.26a29.74,29.74,0,0,1-13.08-12.38q-4.53-8.13-4.52-19.6,0-15.48,8.78-24.77t24.68-10.78l7.3,14.95Q785.07,152.67,779.63,158.06Zm6.22-.09a84.61,84.61,0,0,1-10.43-13.34A58.74,58.74,0,0,1,769,130.51a51.12,51.12,0,0,1-2.22-14.95q0-16.61,9.08-25.69t25.68-9.08q16.51,0,25.56,8.74t9,24.72v2.61H815.31v-2.61q0-7.73-3.6-12t-10.22-4.21q-7.12,0-11,4.56t-3.87,12.91a31,31,0,0,0,2,10.38,55.18,55.18,0,0,0,5.69,11.34,82.58,82.58,0,0,0,9,11.56l54.93,59.37H833.57Z" transform="translate(-8 -3.89)"/><path class="cls-3" d="M874.76,81.83h20.78V208.21H874.76ZM884.5,188.3h73.18v19.91H884.5Z" transform="translate(-8 -3.89)"/><path class="cls-3" d="M990,204.9a30.54,30.54,0,0,1-13-13.42q-4.47-8.82-4.48-21.25V155.54q0-12.25,4.48-21a30.36,30.36,0,0,1,13-13.3q8.55-4.56,20.55-4.56t20.56,4.56a30.39,30.39,0,0,1,13,13.3q4.48,8.73,4.48,21v15q0,12.33-4.48,21.07a30.64,30.64,0,0,1-13,13.34q-8.57,4.62-20.56,4.61T990,204.9Zm33.33-20.29q4.52-5,4.52-14.12v-15q0-9-4.52-14t-12.78-4.95q-8.25,0-12.77,4.95t-4.52,14v15q0,9.12,4.47,14.12t12.82,5Q1018.79,189.61,1023.3,184.61Z" transform="translate(-8 -3.89)"/><path class="cls-3" d="M1065.1,118h42.42v18.16H1065.1Zm14.61,84.61q-5.31-6-5.31-17.86v-93h20.78v90.13a8.53,8.53,0,0,0,1.3,5.09,4.45,4.45,0,0,0,3.82,1.78h7.22v19.9h-11.13Q1085,208.64,1079.71,202.6Z" transform="translate(-8 -3.89)"/><path class="cls-3" d="M1150.89,172.83q0,8,4.26,12.39t12,4.39q7.74,0,11.91-4.13t4.17-11.87l1.22,19.3a26.61,26.61,0,0,1-8.69,11.82,23.31,23.31,0,0,1-14.87,4.78q-14.69,0-22.72-9.47t-8-26.77V118h20.77ZM1183.22,118h20.69v90.22h-20.69Z" transform="translate(-8 -3.89)"/><path class="cls-3" d="M1254.23,209.51l-7.3-1.52a63,63,0,0,1-13.69-4.48,52.25,52.25,0,0,1-11.52-7.21l12.61-15.65a56.61,56.61,0,0,0,14,7.39,42,42,0,0,0,14,2.52q9.48,0,14.39-2.56t4.91-7.43a6.65,6.65,0,0,0-2.44-5.61,14.21,14.21,0,0,0-6.12-2.56q-3.71-.69-10.39-1.31l-2.35-.17c-.81-.06-1.59-.14-2.34-.26a5.37,5.37,0,0,1-.7,0,5.34,5.34,0,0,0-.69-.05,85.62,85.62,0,0,1-15.56-2.91,20.18,20.18,0,0,1-10.21-7.17q-4.14-5.3-4.13-15.21,0-9.3,4.13-15.69a25.24,25.24,0,0,1,12.12-9.64q8-3.27,19.64-3.26a68.23,68.23,0,0,1,13.56,1.34,67.05,67.05,0,0,1,12.65,3.91,61.1,61.1,0,0,1,11.43,6.39l-12.43,15.13a58.45,58.45,0,0,0-12.82-5.83,42.63,42.63,0,0,0-12.56-2q-8.18,0-12.43,2.35a7.5,7.5,0,0,0-4.26,7,5.09,5.09,0,0,0,2.35,4.52,14.42,14.42,0,0,0,5.87,2.13q3.51.57,10.21,1.18c.46.05.91.1,1.34.13s.89.07,1.35.13h.61a3.42,3.42,0,0,1,.7.08,93.57,93.57,0,0,1,16.6,2.87,22.13,22.13,0,0,1,11.21,7.61q4.6,5.68,4.6,16.55,0,9.57-4.34,16.13a26.48,26.48,0,0,1-12.91,9.9q-8.57,3.34-21,3.35Z" transform="translate(-8 -3.89)"/></svg>